<?xml version="1.0" encoding="utf-8"?>
<!-- Generator: Adobe Illustrator 19.0.0, SVG Export Plug-In . SVG Version: 6.00 Build 0)  -->
<svg version="1.1" id="Layer_1" xmlns="http://www.w3.org/2000/svg" xmlns:xlink="http://www.w3.org/1999/xlink" x="0px" y="0px"
	 viewBox="0 0 526.8 148.6" style="enable-background:new 0 0 526.8 148.6;" xml:space="preserve">
<style type="text/css">
	.st0{clip-path:url(#SVGID_2_);fill:#FFFFFF;}
</style>
<g>
	<defs>
		<rect id="SVGID_1_" width="526.8" height="148.6"/>
	</defs>
	<clipPath id="SVGID_2_">
		<use xlink:href="#SVGID_1_"  style="overflow:visible;"/>
	</clipPath>
	<path class="st0" d="M0,115.9l9.6-11.4c6.6,5.5,13.5,8.9,21.9,8.9c6.6,0,10.6-2.6,10.6-6.9v-0.2c0-4.1-2.5-6.2-14.8-9.3
		C12.5,93.1,2.9,89.1,2.9,74.5v-0.2c0-13.3,10.7-22.1,25.7-22.1c10.7,0,19.8,3.4,27.3,9.3l-8.4,12.2c-6.5-4.5-12.9-7.2-19.1-7.2
		c-6.2,0-9.4,2.8-9.4,6.4V73c0,4.8,3.1,6.4,15.9,9.7c14.9,3.9,23.3,9.2,23.3,22v0.2c0,14.6-11.1,22.8-27,22.8
		C20,127.7,8.8,123.8,0,115.9"/>
	<path class="st0" d="M64.2,98.8v-0.2c0-16.1,12.3-29.3,29.5-29.3c10.6,0,17.2,3.6,22.5,9.4l-9.8,10.5c-3.6-3.8-7.1-6.2-12.8-6.2
		c-8,0-13.6,7-13.6,15.3v0.2c0,8.6,5.6,15.5,14.3,15.5c5.4,0,9-2.3,12.9-6l9.3,9.4c-5.5,6-11.8,10.3-23,10.3
		C76.6,127.9,64.2,114.9,64.2,98.8"/>
	<path class="st0" d="M164.7,98.8v-0.2c0-8.3-6-15.5-14.8-15.5c-9.1,0-14.6,7-14.6,15.3v0.2c0,8.3,6,15.5,14.8,15.5
		C159.3,114.1,164.7,107.1,164.7,98.8 M119.6,98.8v-0.2c0-16.2,13-29.3,30.5-29.3c17.4,0,30.3,12.9,30.3,29.1v0.2
		c0,16.2-13,29.3-30.5,29.3C132.5,127.9,119.6,115,119.6,98.8"/>
	<path class="st0" d="M186.7,106.8V70.4h16v31.4c0,7.6,3.6,11.4,9.7,11.4c6.1,0,10-3.9,10-11.4V70.4h16v56.3h-16v-8
		c-3.7,4.7-8.4,9-16.5,9C193.7,127.7,186.7,119.7,186.7,106.8"/>
	<path class="st0" d="M247.5,110.7V56h16v14.4h13.2V84h-13.2v24c0,3.7,1.6,5.5,5.1,5.5c2.9,0,5.6-0.7,7.9-2v12.8
		c-3.4,2-7.2,3.3-12.6,3.3C254.1,127.6,247.5,123.7,247.5,110.7"/>
	<path class="st0" d="M283.7,119.2l6.8-10.5c6.1,4.4,12.5,6.7,17.7,6.7c4.6,0,6.7-1.7,6.7-4.2V111c0-3.5-5.5-4.6-11.7-6.5
		c-7.9-2.3-16.8-6-16.8-16.9v-0.2c0-11.4,9.2-17.8,20.6-17.8c7.1,0,14.9,2.4,21,6.5l-6.1,11c-5.6-3.3-11.1-5.2-15.2-5.2
		c-3.9,0-5.9,1.7-5.9,3.9v0.2c0,3.2,5.4,4.6,11.4,6.7c7.9,2.6,17,6.4,17,16.7v0.2c0,12.5-9.3,18.2-21.5,18.2
		C300,127.7,291.2,125.1,283.7,119.2"/>
	<path class="st0" d="M406.7,66.9c4.6,7,6.8,15,7.6,20.4h8.3c-0.7-6.6-3.4-16.3-9-24.9c-6.7-10.2-15.3-15.6-25-15.6h-0.1
		c-7.4,0-14.4,3.3-19.1,9.2c-4.9,6.1-6.8,14-5.1,21.7l8.1-1.8c-1.1-5.1,0.2-10.7,3.5-14.8c3.2-3.9,7.6-6.1,12.6-6.1h0
		C397.2,55,403.2,61.4,406.7,66.9"/>
	<path class="st0" d="M466.7,124.7c-3.2-4.5-5.6-9.8-6.6-15h-8.4c0.6,4,2.4,10.7,6.9,17.7c-2.8,4.7-7.9,9.4-13.2,12.2c0,0,0,0,0,0
		c0,0,0,0,0,0c-5.4-2.8-10.4-7.5-13.2-12.2c4.5-7,6.2-13.6,6.9-17.7h-8.4c-1,5.1-3.4,10.5-6.6,15l-1.4,1.9l1,2.2
		c3.5,7.6,11.6,15.3,20.1,19.1l1.7,0.7l0,0l0,0l1.7-0.7c8.5-3.8,16.6-11.4,20.1-19.1l1-2.2L466.7,124.7z"/>
	<path class="st0" d="M483.9,66.9c-4.6,7-6.8,15-7.6,20.4H468c0.7-6.6,3.4-16.3,9-24.9c6.6-10.2,15.3-15.6,25-15.6h0.1
		c7.4,0,14.4,3.3,19.1,9.2c4.9,6.1,6.8,14,5.1,21.7l-8.1-1.8c1.1-5.1-0.2-10.7-3.5-14.8c-3.2-3.9-7.7-6.1-12.6-6.1h0
		C493.4,55,487.4,61.4,483.9,66.9"/>
	<path class="st0" d="M430.9,87.2h8.3c-1-9.6-4.8-17.9-8.1-25.3c-3.3-7.4-6.5-14.3-6.4-21.3c0.1-8,4.6-16.1,12.2-21.8
		c1.3-1,5.1-3.9,8.5-7c3.4,3.1,7.1,6,8.5,7c7.6,5.7,12.1,13.8,12.2,21.8c0,6.9-3.1,13.9-6.4,21.3c-3.3,7.4-7.1,15.7-8.1,25.3h8.3
		c1-7.9,4.2-15,7.3-21.9c3.7-8.2,7.2-16,7.1-24.7c-0.1-10.6-5.9-21.1-15.5-28.3c-1.1-0.9-7-5.3-10.4-9l-3-3.3l-3,3.3
		c-3.4,3.6-9.3,8.1-10.4,9c-9.6,7.2-15.4,17.8-15.5,28.3c-0.1,8.8,3.4,16.5,7.1,24.7C426.6,72.2,429.8,79.3,430.9,87.2"/>
	<rect x="398.1" y="94.5" class="st0" width="94.3" height="7.9"/>
</g>
</svg>
