<svg width="269" height="68" viewBox="0 0 269 68" fill="none" xmlns="http://www.w3.org/2000/svg">
<path d="M52.9016 4.1L52.2016 4.5C53.0016 6 53.2016 7.9 52.7016 9.6C51.8016 8.9 51.2016 8 51.0016 7L50.3016 7.4C49.8016 9.4 48.9016 11.4 47.7016 13.2L47.9016 13.9C48.6016 13.5 49.4016 13.3 50.2016 13.4C50.5016 13.4 50.7016 13.4 51.0016 13.4C50.3016 15.1 48.7016 16.2 46.9016 16.2C45.1016 16.3 43.5016 15.3 42.7016 13.7C43.2016 13.5 43.6016 13 43.8016 12.4C44.0016 11.5 43.4016 11.1 43.6016 10.2C43.8016 9.4 44.5016 8.9 45.2016 8.9C46.0016 9 46.7016 9.5 46.8016 10.3C47.5016 9.9 47.9016 9.1 47.8016 8.3C47.7016 7.5 47.2016 6.8 46.4016 6.6C45.7016 6.3 44.8016 6.5 44.3016 7.1C44.6016 6.6 44.8016 6.1 44.9016 5.6C45.1016 4.3 44.9016 3 44.1016 2C42.9016 2.6 42.0016 3.7 41.8016 5C41.6016 5.5 41.6016 6.1 41.7016 6.6C41.4016 5.9 40.7016 5.3 39.9016 5.3C39.1016 5.2 38.4016 5.6 38.0016 6.3C37.6016 7 37.6016 7.8 38.1016 8.5C38.5016 7.8 39.3016 7.6 40.0016 7.9C40.7016 8.2 41.1016 8.9 41.0016 9.7C40.8016 10.5 40.1016 10.7 39.9016 11.6C39.8016 12.1 39.9016 12.6 40.2016 13L40.3016 13.2C38.7016 14.4 36.5016 14.7 34.7016 13.8C32.8016 12.9 31.7016 11 31.7016 9V8.5C33.3016 8.8 34.8016 9.6 35.9016 10.9L36.5016 10.3V3.9L35.9016 3.3C34.8016 4.5 33.3016 5.3 31.7016 5.6C31.6016 3.3 33.2016 1.3 35.4016 0.8L34.8016 0.2C33.2016 0.1 31.6016 0 30.0016 0C28.4016 0 26.8016 0.1 25.2016 0.2L24.6016 0.8C26.8016 1.3 28.4016 3.3 28.4016 5.6C26.7016 5.3 25.2016 4.5 24.1016 3.3L23.5016 3.9V10.3L24.1016 10.8C25.2016 9.6 26.7016 8.8 28.4016 8.5V9C28.3016 11 27.2016 12.9 25.4016 13.8C23.5016 14.7 21.4016 14.5 19.7016 13.2L19.8016 13.1C20.1016 12.6 20.2016 12.1 20.1016 11.6C19.9016 10.7 19.2016 10.6 19.0016 9.7C18.8016 9 19.2016 8.2 20.0016 7.9C20.7016 7.6 21.5016 7.8 22.0016 8.5C22.4016 7.8 22.4016 7 22.0016 6.3C21.6016 5.6 20.9016 5.2 20.1016 5.3C19.3016 5.3 18.6016 5.9 18.3016 6.6C18.4016 6.1 18.4016 5.5 18.2016 5C18.0016 3.7 17.1016 2.6 15.9016 2C15.1016 3 14.8016 4.4 15.1016 5.7C15.2016 6.2 15.4016 6.7 15.7016 7.2C15.1016 6.6 14.3016 6.4 13.5016 6.7C12.8016 6.9 12.2016 7.6 12.2016 8.4C12.1016 9.2 12.5016 10 13.2016 10.4C13.3016 9.6 13.9016 9.1 14.7016 9C15.5016 9 16.2016 9.5 16.4016 10.3C16.6016 11.2 16.0016 11.6 16.2016 12.4C16.3016 13 16.7016 13.5 17.3016 13.8C16.5016 15.4 14.8016 16.3 13.0016 16.3C11.3016 16.2 9.70156 15.1 9.00156 13.5C9.30156 13.4 9.50156 13.4 9.80156 13.4C10.6016 13.4 11.4016 13.6 12.1016 14L12.3016 13.2C11.1016 11.4 10.2016 9.5 9.60156 7.4L9.00156 7C8.80156 8 8.20156 8.9 7.30156 9.6C6.80156 7.9 7.00156 6 7.80156 4.5L7.10156 4.1C6.00156 4.5 4.30156 5.2 3.10156 5.7L10.0016 21.1C22.7016 15.5 37.2016 15.5 50.0016 21.1L56.8016 5.7C55.7016 5.2 54.1016 4.5 52.9016 4.1Z" fill="white"/>
<path d="M59 33C59.1 31.2 57.8 29.5 56 29.1V26.9C58 26.4 59.3 24.5 59 22.5C58.8 20.5 57 19 55 19C53.2 18.9 51.5 20.2 51.1 22H8.89999C8.49999 20.2 6.79999 18.9 4.99999 19C3.89999 19 2.89999 19.4 2.09999 20.1C1.39999 20.9 0.999991 21.9 0.999991 23C0.899991 24.8 2.19999 26.5 3.99999 26.9V29.1C2.19999 29.6 0.999991 31.2 0.999991 33C0.999991 34.8 2.19999 36.5 3.99999 36.9V39.1C2.19999 39.6 0.999991 41.2 0.999991 43C0.999991 44.8 2.19999 46.5 3.99999 46.9V49.1C2.19999 49.6 0.999991 51.2 0.999991 53C0.999991 54.8 2.19999 56.5 3.99999 56.9V59.1C1.99999 59.6 0.699991 61.5 0.999991 63.5C1.29999 65.5 2.99999 67 4.99999 67C6.99999 67 8.79999 65.5 8.99999 63.5C9.29999 61.5 7.99999 59.6 5.99999 59.1V56.9C7.79999 56.5 8.99999 54.8 8.99999 53C8.99999 51.2 7.79999 49.6 5.99999 49.1V46.9C7.79999 46.5 8.99999 44.8 8.99999 43C8.99999 41.2 7.79999 39.6 5.99999 39.1V36.9C7.79999 36.5 8.99999 34.8 8.99999 33C8.99999 31.2 7.79999 29.6 5.99999 29.1V26.9C7.39999 26.6 8.59999 25.4 8.89999 24H11V67H11.5C12.5 63.9 14 61.1 16 58.5V58H14V52H19V58H18V58.6C19.3 61.2 20.3 64.1 20.8 67H21.2C21.7 64.1 22.7 61.2 24 58.6V58H23V52H28V58H27V58.6C28.3 61.2 29.3 64.1 29.8 67H30.2C30.7 64.1 31.7 61.2 33 58.6V58H32V52H37V58H36V58.6C37.3 61.2 38.3 64.1 38.8 67H39.2C39.7 64.1 40.7 61.2 42 58.6V58H41V52H46V58H44V58.5C46 61.1 47.5 63.9 48.5 67H49V24H51.1C51.4 25.4 52.6 26.6 54 26.9V29.1C52.2 29.6 51 31.2 51 33C51 34.8 52.2 36.5 54 36.9V39.1C52.2 39.6 51 41.2 51 43C51 44.8 52.2 46.5 54 46.9V49.1C52.2 49.6 51 51.2 51 53C51 54.8 52.2 56.5 54 56.9V59.1C52 59.6 50.8 61.5 51 63.5C51.3 65.5 53 67 55 67C57 67 58.7 65.5 59 63.5C59.2 61.5 58 59.6 56 59.1V56.9C57.8 56.5 59 54.8 59 53C59 51.2 57.8 49.6 56 49.1V46.9C57.8 46.5 59 44.8 59 43C59 41.2 57.8 39.6 56 39.1V36.9C57.8 36.5 59.1 34.8 59 33ZM6.99999 63C6.99999 63.5 6.79999 64.1 6.39999 64.4C6.09999 64.8 5.49999 65 4.99999 65C4.09999 65 3.19999 64.4 2.99999 63.5C2.69999 62.6 3.19999 61.6 3.99999 61.2C4.09999 61.7 4.49999 62 4.99999 62C5.49999 62 5.89999 61.7 5.99999 61.2C6.69999 61.6 6.99999 62.3 6.99999 63ZM6.99999 53C6.99999 53.7 6.69999 54.4 5.99999 54.8C5.89999 54.3 5.49999 54 4.99999 54C4.49999 54 4.09999 54.3 3.99999 54.8C3.39999 54.4 2.99999 53.7 2.99999 53C2.99999 52.3 3.39999 51.6 3.99999 51.2C4.09999 51.7 4.49999 52 4.99999 52C5.49999 52 5.89999 51.7 5.99999 51.2C6.69999 51.6 6.99999 52.3 6.99999 53ZM6.99999 43C6.99999 43.7 6.69999 44.4 5.99999 44.8C5.89999 44.3 5.49999 44 4.99999 44C4.49999 44 4.09999 44.3 3.99999 44.8C3.39999 44.4 2.99999 43.7 2.99999 43C2.99999 42.3 3.39999 41.6 3.99999 41.2C4.09999 41.7 4.49999 42 4.99999 42C5.49999 42 5.89999 41.7 5.99999 41.2C6.69999 41.6 6.99999 42.3 6.99999 43ZM5.99999 24.8C5.89999 24.3 5.49999 24 4.99999 24C4.49999 24 4.09999 24.3 3.99999 24.8C3.19999 24.4 2.69999 23.4 2.99999 22.5C3.19999 21.6 4.09999 21 4.99999 21C5.89999 21 6.79999 21.6 6.99999 22.5C7.29999 23.4 6.79999 24.4 5.99999 24.8ZM19 49H14V43H19V49ZM19 40H14V34H19V40ZM19 31H14V25H19V31ZM28 49H23V43H28V49ZM28 40H23V34H28V40ZM28 31H23V25H28V31ZM37 49H32V43H37V49ZM37 40H32V34H37V40ZM37 31H32V25H37V31ZM46 49H41V43H46V49ZM46 40H41V34H46V40ZM46 31H41V25H46V31ZM53 23C53 22 53.7 21.2 54.7 21.1C55.6 20.9 56.6 21.5 56.9 22.4C57.2 23.3 56.8 24.3 56 24.8C56 24.2 55.6 23.8 55 23.8C54.4 23.8 54 24.2 54 24.8C53.3 24.4 53 23.7 53 23ZM57 63C57 64 56.3 64.8 55.3 64.9C54.4 65.1 53.4 64.5 53.1 63.6C52.8 62.7 53.2 61.7 54 61.2C54 61.8 54.4 62.2 55 62.2C55.6 62.2 56 61.8 56 61.2C56.7 61.6 57 62.3 57 63ZM57 53C57 53.7 56.7 54.4 56 54.8C56 54.2 55.6 53.8 55 53.8C54.4 53.8 54 54.2 54 54.8C53.4 54.4 53 53.7 53 53C53 52.3 53.4 51.6 54 51.2C54 51.8 54.4 52.2 55 52.2C55.6 52.2 56 51.8 56 51.2C56.7 51.6 57 52.3 57 53ZM57 43C57 43.7 56.7 44.4 56 44.8C56 44.2 55.6 43.8 55 43.8C54.4 43.8 54 44.2 54 44.8C53.4 44.4 53 43.7 53 43C53 42.3 53.4 41.6 54 41.2C54 41.8 54.4 42.2 55 42.2C55.6 42.2 56 41.8 56 41.2C56.7 41.6 57 42.3 57 43ZM6.99999 33C6.99999 33.7 6.69999 34.4 5.99999 34.8C5.89999 34.3 5.49999 34 4.99999 34C4.49999 34 4.09999 34.3 3.99999 34.8C3.39999 34.4 2.99999 33.7 2.99999 33C2.99999 32.3 3.39999 31.6 3.99999 31.2C4.09999 31.7 4.49999 32 4.99999 32C5.49999 32 5.89999 31.7 5.99999 31.2C6.69999 31.6 6.99999 32.3 6.99999 33ZM57 33C57 33.7 56.7 34.4 56 34.8C56 34.2 55.6 33.8 55 33.8C54.4 33.8 54 34.2 54 34.8C53.4 34.4 53 33.7 53 33C53 32.3 53.4 31.6 54 31.2C54 31.8 54.4 32.2 55 32.2C55.6 32.2 56 31.8 56 31.2C56.7 31.6 57 32.3 57 33Z" fill="white"/>
<path d="M96.3 5.69995V24.7C96.3 32.2 91 34.6 85.2 34.6C79.3 34.6 74 32.1 74 24.7V5.69995H79.1V23.2999C79.1 28.0999 81.1 30.4 85.1 30.4C89.2 30.4 91.2 27.9999 91.2 23.4V5.69995H96.3Z" fill="white"/>
<path d="M115.6 34L107.2 21.9H105.2V34H100V5.69995H105.1V17.4H107.3L115.1 5.69995H121.1L111.6 19.4L121.9 34H115.6Z" fill="white"/>
<path d="M74 67V38.7H83.1C90.1 38.7 93.2 42 93.2 47.7C93.2 53.4 89.8 57.0999 83.6 57.0999H79.1V67H74ZM79.1 52.7999H83C86.7 52.7999 88 51 88 47.9C88 44.7 86.3 43 83 43H79.1V52.7999Z" fill="white"/>
<path d="M112.7 61.2999C112.7 62.8999 113.5 63.2999 114.4 63.2999C114.8 63.2999 115.3 63.1999 115.7 62.9999V66.7999C114.8 67.1999 113.8 67.3999 112.9 67.3999C110.2 67.3999 108.6 66.2999 108.1 63.7999C107 66.5999 104.5 67.5999 101.6 67.5999C97.7 67.5999 95 65.2999 95 61.4999C95 56.5999 98.8 53.7999 107.8 54.2999V51.7999C107.8 49.2999 106.4 48.1999 104.2 48.1999C103.2 48.0999 102.3 48.4999 101.6 49.0999C100.9 49.7999 100.6 50.6999 100.6 51.6999L95.7 50.8999C96 46.0999 100.1 44.2999 104.5 44.2999C109.3 44.2999 112.8 46.2999 112.8 51.2999L112.7 61.2999ZM107.7 57.2999C102.3 57.1999 100 58.4999 100 60.9999C100 61.7999 100.3 62.5999 100.9 63.1999C101.5 63.6999 102.4 63.9999 103.2 63.8999C105.3 63.8999 107.7 62.6999 107.7 60.1999V57.2999Z" fill="white"/>
<path d="M146.3 35.3999C147.1 35.2999 148 35.5999 148.6 36.1999C149.2 36.7999 149.6 37.6999 149.6 38.5999C149.5 40.2999 148 41.5999 146.3 41.5999C144.6 41.5999 143.1 40.2999 143 38.5999C143 37.6999 143.3 36.8999 144 36.2999C144.6 35.6999 145.4 35.2999 146.3 35.3999ZM148.8 44.7999V66.9999H143.8V44.7999H148.8Z" fill="white"/>
<path d="M169.499 61.2999C169.499 62.8999 170.199 63.2999 171.099 63.2999C171.599 63.2999 171.999 63.1999 172.399 62.9999V66.7999C171.499 67.1999 170.599 67.3999 169.599 67.3999C166.999 67.3999 165.399 66.2999 164.799 63.7999C163.699 66.5999 161.199 67.5999 158.299 67.5999C154.399 67.5999 151.699 65.2999 151.699 61.4999C151.699 56.5999 155.599 53.7999 164.499 54.2999V51.7999C164.499 49.2999 163.099 48.1999 160.999 48.1999C159.999 48.0999 159.099 48.4999 158.399 49.0999C157.699 49.7999 157.299 50.6999 157.399 51.6999L152.499 50.8999C152.799 46.0999 156.899 44.2999 161.299 44.2999C166.099 44.2999 169.499 46.2999 169.499 51.2999V61.2999ZM164.499 57.2999C158.999 57.1999 156.799 58.4999 156.799 60.9999C156.699 61.7999 157.099 62.5999 157.699 63.1999C158.299 63.6999 159.099 63.9999 159.899 63.8999C161.999 63.8999 164.499 62.6999 164.499 60.1999V57.2999Z" fill="white"/>
<path d="M199.6 44.3C203.3 44.3 206 46.3 206 51.1V67H201V52.8C201 50.2 200 48.6 197.6 48.6C195.2 48.6 193 50.2 193 54.4V67H188V52.8C188 50.2 187 48.6 184.5 48.6C182.1 48.6 180 50.2 180 54.5V67H175V44.8H179L179.6 49.1C180.5 46.1 183.4 44.1 186.5 44.3C189.6 44.3 191.9 45.6 192.5 49.2C193.7 45.7 196.4 44.3 199.6 44.3Z" fill="white"/>
<path d="M224.002 60.1999L228.402 61.4999C227.402 66.0999 223.602 67.5999 219.302 67.5999C213.202 67.5999 209.102 63.4999 209.102 56.1999C209.102 48.6999 213.102 44.2999 219.502 44.2999C225.402 44.2999 228.502 48.2999 228.502 53.8999C228.502 54.8999 228.402 55.8999 228.102 56.8999H214.002C214.202 60.8999 216.102 63.6999 219.502 63.6999C221.702 63.8999 223.602 62.3999 224.002 60.1999ZM223.602 53.5999C223.602 53.2999 223.602 52.9999 223.602 52.6999C223.702 51.4999 223.202 50.2999 222.402 49.4999C221.602 48.5999 220.402 48.0999 219.202 48.0999C216.302 48.0999 214.402 50.1999 214.102 53.5999H223.602Z" fill="white"/>
<path d="M236.401 49.0999C237.601 45.7999 240.201 44.2999 243.501 44.2999C247.101 44.2999 250.201 46.2999 250.201 51.1999V66.9999H245.201V52.8999C245.201 50.1999 244.201 48.5999 241.601 48.5999C239.101 48.5999 236.801 49.8999 236.801 54.4999V66.9999H231.801V44.7999H235.901L236.401 49.0999Z" fill="white"/>
<path d="M268.3 66.2C266.5 67.2 264.4 67.5999 262.4 67.5999C258.3 67.5999 255.7 65.5 255.7 61V48.7999H252.5V44.7999H255.7L256.9 38.7H260.8V44.7999H267.4V48.7999H260.8V60C260.8 62.4 261.8 63.2999 263.6 63.2999C265 63.2999 266.3 62.8 267.4 62L268.3 66.2Z" fill="white"/>
<path d="M123.099 50.8999L122.499 44.7999H118.199V66.9999H123.199V56.0999C123.199 51.6999 126.199 49.6999 129.199 49.6999H129.899V44.3999C125.899 44.7999 123.899 47.3999 123.099 50.8999Z" fill="white"/>
<path d="M139.5 63C139 63.1 138.5 62.9 138.1 62.5C137.7 62.2 137.5 61.5999 137.5 61.0999V36.2H132.5V62.2999C132.5 65.8999 135 67.4 138 67.4C139 67.4 140 67.2 141 66.9V62.9C140.5 63 140 63 139.5 63Z" fill="white"/>
</svg>
